<?xml version="1.0" standalone="no"?>
<!DOCTYPE svg PUBLIC "-//W3C//DTD SVG 20010904//EN"
 "http://www.w3.org/TR/2001/REC-SVG-20010904/DTD/svg10.dtd">
<svg version="1.0" xmlns="http://www.w3.org/2000/svg"
 width="667.000000pt" height="667.000000pt" viewBox="0 0 667.000000 667.000000"
 preserveAspectRatio="xMidYMid meet">
<metadata>
Created by potrace 1.14, written by Peter Selinger 2001-2017
</metadata>
<g transform="translate(0.000000,667.000000) scale(0.100000,-0.100000)"
fill="#000000" stroke="none">
<path d="M3139 5106 c-2 -2 -34 -6 -71 -10 -36 -3 -72 -8 -80 -11 -7 -2 -26
-6 -43 -9 -213 -35 -473 -138 -658 -261 -38 -25 -73 -45 -77 -45 -5 0 -10 -3
-12 -7 -1 -5 -34 -33 -73 -64 -95 -76 -285 -267 -285 -285 0 -3 -9 -15 -21
-27 -59 -63 -198 -304 -259 -452 -45 -108 -101 -325 -117 -455 -10 -82 -10
-386 1 -465 17 -132 74 -354 116 -450 25 -58 113 -241 119 -245 3 -3 12 -15
19 -27 30 -55 38 -68 47 -79 6 -7 28 -38 49 -68 22 -31 43 -56 48 -56 4 0 8
-5 8 -10 0 -26 195 -221 295 -295 22 -17 42 -32 45 -35 11 -11 69 -49 143 -94
178 -108 422 -201 607 -232 14 -2 35 -6 46 -9 90 -20 410 -27 529 -11 87 11
196 32 254 50 28 8 51 12 51 9 0 -3 6 -1 13 5 6 6 15 11 19 11 53 8 275 106
387 171 51 29 173 112 197 135 7 5 31 26 55 45 130 106 308 314 393 460 177
305 263 615 263 953 1 78 -3 171 -8 207 -20 149 -24 173 -41 235 -6 22 -11 45
-12 50 -8 35 -40 132 -46 140 -5 6 -8 13 -9 18 -1 39 -106 256 -176 362 -85
130 -121 174 -253 310 -84 86 -274 239 -319 256 -11 4 -24 12 -27 18 -4 5 -30
21 -59 36 -28 14 -59 30 -67 35 -91 57 -403 158 -539 175 -30 4 -63 9 -75 12
-24 6 -371 14 -377 9z"/>
</g>
</svg>
